<svg width="859" height="229" viewBox="0 0 859 229" fill="none" xmlns="http://www.w3.org/2000/svg">
<g clip-path="url(#clip0_4_376)">
<path d="M209.561 200.751L100.007 170.626L105.211 167.621L202.081 194.259L159.204 95.5274V84.7979L209.561 200.751Z" fill="#BB464B"/>
<path d="M156.704 52.5742V135.006L85.3174 176.22L13.9307 135.006V52.5742L85.3174 11.3604L156.704 52.5742Z" stroke="#BB464B" stroke-width="5"/>
<path d="M159.204 51.1319L154.204 54.0186V54.0176L85.3172 14.2471L16.4305 54.0176V54.0186L11.4305 51.1319L85.3172 8.47366L159.204 51.1319Z" fill="#E0684B"/>
<circle cx="209.38" cy="199.613" r="12.5" transform="rotate(9.47692 209.38 199.613)" fill="#E0684B"/>
<circle cx="209.38" cy="199.613" r="21" transform="rotate(9.47692 209.38 199.613)" stroke="#E0684B" stroke-width="5"/>
<path d="M231.293 191.118L226.31 191.937L188.117 70.1561L190.9 197.757L185.917 198.576L182.351 35.0578L231.293 191.118Z" fill="#E0684B"/>
<path d="M583.844 162.62L176.842 53.5196L196.145 53.5196L470.569 127.081L200 29.4913L200 24.1749L583.844 162.62Z" fill="#8D3639"/>
<rect x="176" y="29.5196" width="13" height="13" fill="#8D3639"/>
<rect x="167.5" y="21.0196" width="30" height="30" stroke="#8D3639" stroke-width="5"/>
<path d="M84.3439 27.1464L26.6355 60.3931V126.944L84.3439 160.227L142.052 126.98V60.4087L84.3439 27.1464Z" fill="white"/>
<path d="M142.052 60.4087L123.989 49.9983L106.611 60.0139L124.675 70.4295L142.052 60.4087Z" fill="#E0684B"/>
<path d="M44.0126 70.4295L101.716 37.162L84.3439 27.1412L26.6355 60.4087L44.0126 70.4295Z" fill="#E0684B"/>
<path d="M66.2801 104.092L84.3439 114.502L102.403 104.092L84.3439 93.6763L66.2801 104.092Z" fill="#E0684B"/>
<path d="M124.675 70.4295V116.928L84.3439 140.18L44.0126 116.928V70.4295L26.6355 60.4087V126.944L84.3439 160.211L142.052 126.944V60.4087L124.675 70.4295Z" fill="#BB464B"/>
<path d="M84.3439 72.8555L66.2801 83.2659V104.092L84.3439 93.6763L102.403 104.092V83.2659L84.3439 72.8555Z" fill="#BB464B"/>
<path d="M124.675 70.4295L102.403 83.2659V104.092L84.3439 114.502V140.18L124.675 116.928V70.4295Z" fill="#E0DED8"/>
<path d="M44.0126 70.4295L66.2801 83.2659V104.092L84.3439 114.502V140.18L44.0126 116.928V70.4295Z" fill="#D5D2CA"/>
<path d="M101.716 37.162L123.989 49.9983L106.611 60.0139L124.675 70.4295L102.402 83.2659L84.3439 72.8555L66.2801 83.2659L44.0126 70.4295L101.716 37.162Z" fill="white"/>
<path d="M215.886 136.031V66.2127H228.227V92.3264H228.739C229.375 91.0537 230.273 89.7014 231.432 88.2696C232.591 86.815 234.159 85.5764 236.136 84.5537C238.114 83.5082 240.636 82.9855 243.705 82.9855C247.75 82.9855 251.398 84.0196 254.648 86.0877C257.92 88.1332 260.511 91.1673 262.42 95.19C264.352 99.19 265.318 104.099 265.318 109.917C265.318 115.667 264.375 120.554 262.489 124.576C260.602 128.599 258.034 131.667 254.784 133.781C251.534 135.895 247.852 136.951 243.739 136.951C240.739 136.951 238.25 136.451 236.273 135.451C234.295 134.451 232.705 133.247 231.5 131.838C230.318 130.406 229.398 129.054 228.739 127.781H228.023V136.031H215.886ZM227.989 109.849C227.989 113.235 228.466 116.201 229.42 118.747C230.398 121.292 231.795 123.281 233.614 124.713C235.455 126.122 237.682 126.826 240.295 126.826C243.023 126.826 245.307 126.099 247.148 124.645C248.989 123.167 250.375 121.156 251.307 118.61C252.261 116.042 252.739 113.122 252.739 109.849C252.739 106.599 252.273 103.713 251.341 101.19C250.409 98.6673 249.023 96.69 247.182 95.2582C245.341 93.8264 243.045 93.1105 240.295 93.1105C237.659 93.1105 235.42 93.8037 233.58 95.19C231.739 96.5764 230.341 98.5196 229.386 101.02C228.455 103.52 227.989 106.463 227.989 109.849ZM290.878 137.088C287.56 137.088 284.571 136.497 281.912 135.315C279.276 134.11 277.185 132.338 275.639 129.997C274.116 127.656 273.355 124.77 273.355 121.338C273.355 118.383 273.901 115.94 274.991 114.008C276.082 112.076 277.571 110.531 279.457 109.372C281.344 108.213 283.469 107.338 285.832 106.747C288.219 106.133 290.685 105.69 293.23 105.417C296.298 105.099 298.787 104.815 300.696 104.565C302.605 104.292 303.991 103.883 304.855 103.338C305.741 102.77 306.185 101.895 306.185 100.713V100.508C306.185 97.94 305.423 95.9514 303.901 94.5423C302.378 93.1332 300.185 92.4287 297.321 92.4287C294.298 92.4287 291.901 93.0877 290.128 94.4059C288.378 95.7241 287.196 97.2809 286.582 99.0764L275.06 97.44C275.969 94.2582 277.469 91.5991 279.56 89.4627C281.651 87.3037 284.207 85.69 287.23 84.6218C290.253 83.5309 293.594 82.9855 297.253 82.9855C299.776 82.9855 302.287 83.2809 304.787 83.8718C307.287 84.4627 309.571 85.44 311.639 86.8037C313.707 88.1446 315.366 89.9741 316.616 92.2923C317.889 94.6105 318.526 97.5082 318.526 100.985V136.031H306.662V128.838H306.253C305.503 130.292 304.446 131.656 303.082 132.929C301.741 134.179 300.048 135.19 298.003 135.963C295.98 136.713 293.605 137.088 290.878 137.088ZM294.082 128.02C296.56 128.02 298.707 127.531 300.526 126.554C302.344 125.554 303.741 124.235 304.719 122.599C305.719 120.963 306.219 119.179 306.219 117.247V111.076C305.832 111.395 305.173 111.69 304.241 111.963C303.332 112.235 302.31 112.474 301.173 112.679C300.037 112.883 298.912 113.065 297.798 113.224C296.685 113.383 295.719 113.52 294.901 113.633C293.06 113.883 291.412 114.292 289.957 114.86C288.503 115.429 287.355 116.224 286.514 117.247C285.673 118.247 285.253 119.542 285.253 121.133C285.253 123.406 286.082 125.122 287.741 126.281C289.401 127.44 291.514 128.02 294.082 128.02ZM331.48 136.031V66.2127H343.821V92.3264H344.332C344.969 91.0537 345.866 89.7014 347.026 88.2696C348.185 86.815 349.753 85.5764 351.73 84.5537C353.707 83.5082 356.23 82.9855 359.298 82.9855C363.344 82.9855 366.991 84.0196 370.241 86.0877C373.514 88.1332 376.105 91.1673 378.014 95.19C379.946 99.19 380.912 104.099 380.912 109.917C380.912 115.667 379.969 120.554 378.082 124.576C376.196 128.599 373.628 131.667 370.378 133.781C367.128 135.895 363.446 136.951 359.332 136.951C356.332 136.951 353.844 136.451 351.866 135.451C349.889 134.451 348.298 133.247 347.094 131.838C345.912 130.406 344.991 129.054 344.332 127.781H343.616V136.031H331.48ZM343.582 109.849C343.582 113.235 344.06 116.201 345.014 118.747C345.991 121.292 347.389 123.281 349.207 124.713C351.048 126.122 353.276 126.826 355.889 126.826C358.616 126.826 360.901 126.099 362.741 124.645C364.582 123.167 365.969 121.156 366.901 118.61C367.855 116.042 368.332 113.122 368.332 109.849C368.332 106.599 367.866 103.713 366.935 101.19C366.003 98.6673 364.616 96.69 362.776 95.2582C360.935 93.8264 358.639 93.1105 355.889 93.1105C353.253 93.1105 351.014 93.8037 349.173 95.19C347.332 96.5764 345.935 98.5196 344.98 101.02C344.048 103.52 343.582 106.463 343.582 109.849ZM397.293 155.667C395.611 155.667 394.054 155.531 392.622 155.258C391.213 155.008 390.088 154.713 389.247 154.372L392.111 144.758C393.906 145.281 395.509 145.531 396.918 145.508C398.327 145.485 399.565 145.042 400.634 144.179C401.724 143.338 402.645 141.929 403.395 139.951L404.452 137.122L385.463 83.6673H398.554L410.622 123.213H411.168L423.27 83.6673H436.395L415.429 142.372C414.452 145.145 413.156 147.52 411.543 149.497C409.929 151.497 407.952 153.02 405.611 154.065C403.293 155.133 400.52 155.667 397.293 155.667ZM457.276 66.2127V136.031H444.935V66.2127H457.276ZM492.807 137.054C487.693 137.054 483.261 135.929 479.511 133.679C475.761 131.429 472.852 128.281 470.784 124.235C468.739 120.19 467.716 115.463 467.716 110.054C467.716 104.645 468.739 99.9059 470.784 95.8377C472.852 91.7696 475.761 88.6105 479.511 86.3605C483.261 84.1105 487.693 82.9855 492.807 82.9855C497.92 82.9855 502.352 84.1105 506.102 86.3605C509.852 88.6105 512.75 91.7696 514.795 95.8377C516.864 99.9059 517.898 104.645 517.898 110.054C517.898 115.463 516.864 120.19 514.795 124.235C512.75 128.281 509.852 131.429 506.102 133.679C502.352 135.929 497.92 137.054 492.807 137.054ZM492.875 127.167C495.648 127.167 497.966 126.406 499.83 124.883C501.693 123.338 503.08 121.27 503.989 118.679C504.92 116.088 505.386 113.201 505.386 110.02C505.386 106.815 504.92 103.917 503.989 101.326C503.08 98.7127 501.693 96.6332 499.83 95.0877C497.966 93.5423 495.648 92.7696 492.875 92.7696C490.034 92.7696 487.67 93.5423 485.784 95.0877C483.92 96.6332 482.523 98.7127 481.591 101.326C480.682 103.917 480.227 106.815 480.227 110.02C480.227 113.201 480.682 116.088 481.591 118.679C482.523 121.27 483.92 123.338 485.784 124.883C487.67 126.406 490.034 127.167 492.875 127.167ZM540.713 105.349V136.031H528.372V83.6673H540.168V92.565H540.781C541.986 89.6332 543.906 87.3037 546.543 85.5764C549.202 83.8491 552.486 82.9855 556.395 82.9855C560.009 82.9855 563.156 83.7582 565.838 85.3037C568.543 86.8491 570.634 89.0877 572.111 92.0196C573.611 94.9514 574.349 98.5082 574.327 102.69V136.031H561.986V104.599C561.986 101.099 561.077 98.3605 559.259 96.3832C557.463 94.4059 554.974 93.4173 551.793 93.4173C549.634 93.4173 547.713 93.8946 546.031 94.8491C544.372 95.7809 543.065 97.1332 542.111 98.9059C541.179 100.679 540.713 102.826 540.713 105.349ZM618.611 101.872V112.031H587.179V101.872H618.611ZM631.591 136.031V83.6673H643.386V92.565H644C645.091 89.565 646.898 87.2241 649.42 85.5423C651.943 83.8377 654.955 82.9855 658.455 82.9855C662 82.9855 664.989 83.8491 667.42 85.5764C669.875 87.2809 671.602 89.6105 672.602 92.565H673.148C674.307 89.6559 676.261 87.3377 679.011 85.6105C681.784 83.8605 685.068 82.9855 688.864 82.9855C693.682 82.9855 697.614 84.5082 700.659 87.5537C703.705 90.5991 705.227 95.0423 705.227 100.883V136.031H692.852V102.792C692.852 99.5423 691.989 97.1673 690.261 95.6673C688.534 94.1446 686.42 93.3832 683.92 93.3832C680.943 93.3832 678.614 94.315 676.932 96.1787C675.273 98.0196 674.443 100.417 674.443 103.372V136.031H662.341V102.281C662.341 99.5764 661.523 97.4173 659.886 95.8037C658.273 94.19 656.159 93.3832 653.545 93.3832C651.773 93.3832 650.159 93.8377 648.705 94.7468C647.25 95.6332 646.091 96.8946 645.227 98.5309C644.364 100.145 643.932 102.031 643.932 104.19V136.031H631.591ZM717.747 136.031V83.6673H729.543V92.565H730.156C731.247 89.565 733.054 87.2241 735.577 85.5423C738.099 83.8377 741.111 82.9855 744.611 82.9855C748.156 82.9855 751.145 83.8491 753.577 85.5764C756.031 87.2809 757.759 89.6105 758.759 92.565H759.304C760.463 89.6559 762.418 87.3377 765.168 85.6105C767.94 83.8605 771.224 82.9855 775.02 82.9855C779.838 82.9855 783.77 84.5082 786.815 87.5537C789.861 90.5991 791.384 95.0423 791.384 100.883V136.031H779.009V102.792C779.009 99.5423 778.145 97.1673 776.418 95.6673C774.69 94.1446 772.577 93.3832 770.077 93.3832C767.099 93.3832 764.77 94.315 763.088 96.1787C761.429 98.0196 760.599 100.417 760.599 103.372V136.031H748.497V102.281C748.497 99.5764 747.679 97.4173 746.043 95.8037C744.429 94.19 742.315 93.3832 739.702 93.3832C737.929 93.3832 736.315 93.8377 734.861 94.7468C733.406 95.6332 732.247 96.8946 731.384 98.5309C730.52 100.145 730.088 102.031 730.088 104.19V136.031H717.747ZM823.335 136.951C819.222 136.951 815.54 135.895 812.29 133.781C809.04 131.667 806.472 128.599 804.585 124.576C802.699 120.554 801.756 115.667 801.756 109.917C801.756 104.099 802.71 99.19 804.619 95.19C806.551 91.1673 809.153 88.1332 812.426 86.0877C815.699 84.0196 819.347 82.9855 823.369 82.9855C826.438 82.9855 828.96 83.5082 830.938 84.5537C832.915 85.5764 834.483 86.815 835.642 88.2696C836.801 89.7014 837.699 91.0537 838.335 92.3264H838.847V66.2127H851.222V136.031H839.085V127.781H838.335C837.699 129.054 836.778 130.406 835.574 131.838C834.369 133.247 832.778 134.451 830.801 135.451C828.824 136.451 826.335 136.951 823.335 136.951ZM826.778 126.826C829.392 126.826 831.619 126.122 833.46 124.713C835.301 123.281 836.699 121.292 837.653 118.747C838.608 116.201 839.085 113.235 839.085 109.849C839.085 106.463 838.608 103.52 837.653 101.02C836.722 98.5196 835.335 96.5764 833.494 95.19C831.676 93.8037 829.438 93.1105 826.778 93.1105C824.028 93.1105 821.733 93.8264 819.892 95.2582C818.051 96.69 816.665 98.6673 815.733 101.19C814.801 103.713 814.335 106.599 814.335 109.849C814.335 113.122 814.801 116.042 815.733 118.61C816.688 121.156 818.085 123.167 819.926 124.645C821.79 126.099 824.074 126.826 826.778 126.826Z" fill="#BB464B"/>
</g>
<defs>
<clipPath id="clip0_4_376">
<rect width="859" height="228" fill="white" transform="translate(0 0.718597)"/>
</clipPath>
</defs>
</svg>
