<svg width="256" height="222" viewBox="0 0 256 222" fill="none" xmlns="http://www.w3.org/2000/svg">
<g clip-path="url(#clip0_4_377)">
<path d="M201.561 196.277L92.0068 166.152L97.2109 163.147L194.081 189.785L151.204 91.0537V80.3242L201.561 196.277Z" fill="#BB464B"/>
<path d="M148.704 48.1006V130.532L77.3174 171.746L5.93066 130.532V48.1006L77.3174 6.88672L148.704 48.1006Z" stroke="#BB464B" stroke-width="5"/>
<path d="M151.204 46.6582L146.204 49.5449V49.5439L77.3172 9.77344L8.43048 49.5439V49.5449L3.43048 46.6582L77.3172 4L151.204 46.6582Z" fill="#E0684B"/>
<circle cx="201.38" cy="195.14" r="12.5" transform="rotate(9.47692 201.38 195.14)" fill="#E0684B"/>
<circle cx="201.38" cy="195.14" r="21" transform="rotate(9.47692 201.38 195.14)" stroke="#E0684B" stroke-width="5"/>
<path d="M223.293 186.645L218.31 187.464L180.117 65.6824L182.9 193.283L177.917 194.103L174.351 30.5841L223.293 186.645Z" fill="#E0684B"/>
<path d="M250.496 78.2998L172.115 49.0459L186.4 49.0459L228.668 64.8213L192 30.6973L192 23.8604L250.496 78.2998Z" fill="#BB464B"/>
<rect x="168" y="25.0459" width="13" height="13" fill="#BB464B"/>
<rect x="159.5" y="16.5459" width="30" height="30" stroke="#BB464B" stroke-width="5"/>
<path d="M76.3439 22.6727L18.6355 55.9195V122.47L76.3439 155.753L134.052 122.506V55.9351L76.3439 22.6727Z" fill="white"/>
<path d="M134.052 55.9351L115.989 45.5247L98.6115 55.5402L116.675 65.9558L134.052 55.9351Z" fill="#E0684B"/>
<path d="M36.0126 65.9559L93.7157 32.6883L76.3439 22.6675L18.6355 55.9351L36.0126 65.9559Z" fill="#E0684B"/>
<path d="M58.2801 99.6182L76.3439 110.029L94.4025 99.6182L76.3439 89.2026L58.2801 99.6182Z" fill="#E0684B"/>
<path d="M116.675 65.9558V112.455L76.3439 135.706L36.0126 112.455V65.9558L18.6355 55.9351V122.47L76.3439 155.738L134.052 122.47V55.9351L116.675 65.9558Z" fill="#BB464B"/>
<path d="M76.3439 68.3818L58.2801 78.7922V99.6182L76.3439 89.2026L94.4025 99.6182V78.7922L76.3439 68.3818Z" fill="#BB464B"/>
<path d="M116.675 65.9558L94.4025 78.7922V99.6182L76.3439 110.029V135.706L116.675 112.455V65.9558Z" fill="#E0DED8"/>
<path d="M36.0126 65.9558L58.2801 78.7922V99.6182L76.3439 110.029V135.706L36.0126 112.455V65.9558Z" fill="#D5D2CA"/>
<path d="M93.7157 32.6883L115.989 45.5247L98.6115 55.5403L116.675 65.9559L94.4025 78.7922L76.3439 68.3818L58.2801 78.7922L36.0126 65.9559L93.7157 32.6883Z" fill="white"/>
</g>
<defs>
<clipPath id="clip0_4_377">
<rect width="255" height="222" fill="white" transform="translate(0.345337)"/>
</clipPath>
</defs>
</svg>
